<mxfile host="app.diagrams.net" agent="Mozilla/5.0 (Windows NT 6.1; Win64; x64) AppleWebKit/537.36 (KHTML, like Gecko) Chrome/109.0.0.0 Safari/537.36" version="28.2.5">
  <diagram name="Página-1" id="FdBRjSEfgYT8iuna8YhA">
    <mxGraphModel dx="1426" dy="801" grid="1" gridSize="10" guides="1" tooltips="1" connect="1" arrows="1" fold="1" page="1" pageScale="1" pageWidth="827" pageHeight="1169" math="0" shadow="0">
      <root>
        <mxCell id="0" />
        <mxCell id="1" parent="0" />
        <mxCell id="Qrx5u4FthudbhS2sXJX7-1" value="Usuário" style="shape=umlActor;verticalLabelPosition=bottom;verticalAlign=top;html=1;outlineConnect=0;" parent="1" vertex="1">
          <mxGeometry x="190" y="320" width="40" height="80" as="geometry" />
        </mxCell>
        <mxCell id="Qrx5u4FthudbhS2sXJX7-2" value="Uso do SCGI" style="swimlane;whiteSpace=wrap;html=1;" parent="1" vertex="1">
          <mxGeometry x="310" y="220" width="200" height="280" as="geometry" />
        </mxCell>
        <mxCell id="Qrx5u4FthudbhS2sXJX7-3" value="Registrar Transação" style="ellipse;whiteSpace=wrap;html=1;" parent="Qrx5u4FthudbhS2sXJX7-2" vertex="1">
          <mxGeometry x="50" y="40" width="100" height="40" as="geometry" />
        </mxCell>
        <mxCell id="Qrx5u4FthudbhS2sXJX7-4" value="Estabeler Meta" style="ellipse;whiteSpace=wrap;html=1;" parent="Qrx5u4FthudbhS2sXJX7-2" vertex="1">
          <mxGeometry x="50" y="100" width="100" height="40" as="geometry" />
        </mxCell>
        <mxCell id="Qrx5u4FthudbhS2sXJX7-5" value="Alterar Dados P&lt;span style=&quot;background-color: transparent; color: light-dark(rgb(0, 0, 0), rgb(255, 255, 255));&quot;&gt;essoais&lt;/span&gt;" style="ellipse;whiteSpace=wrap;html=1;" parent="Qrx5u4FthudbhS2sXJX7-2" vertex="1">
          <mxGeometry x="50" y="160" width="100" height="40" as="geometry" />
        </mxCell>
        <mxCell id="Qrx5u4FthudbhS2sXJX7-6" value="Emitir Relatório Geral" style="ellipse;whiteSpace=wrap;html=1;" parent="Qrx5u4FthudbhS2sXJX7-2" vertex="1">
          <mxGeometry x="50" y="220" width="100" height="40" as="geometry" />
        </mxCell>
        <mxCell id="Qrx5u4FthudbhS2sXJX7-11" value="" style="endArrow=none;html=1;rounded=0;entryX=0;entryY=0.5;entryDx=0;entryDy=0;" parent="1" source="Qrx5u4FthudbhS2sXJX7-1" target="Qrx5u4FthudbhS2sXJX7-3" edge="1">
          <mxGeometry width="50" height="50" relative="1" as="geometry">
            <mxPoint x="450" y="360" as="sourcePoint" />
            <mxPoint x="500" y="310" as="targetPoint" />
          </mxGeometry>
        </mxCell>
        <mxCell id="Qrx5u4FthudbhS2sXJX7-13" value="" style="endArrow=none;html=1;rounded=0;entryX=0;entryY=0.5;entryDx=0;entryDy=0;" parent="1" source="Qrx5u4FthudbhS2sXJX7-1" target="Qrx5u4FthudbhS2sXJX7-4" edge="1">
          <mxGeometry width="50" height="50" relative="1" as="geometry">
            <mxPoint x="450" y="360" as="sourcePoint" />
            <mxPoint x="490" y="300" as="targetPoint" />
          </mxGeometry>
        </mxCell>
        <mxCell id="Qrx5u4FthudbhS2sXJX7-14" value="" style="endArrow=none;html=1;rounded=0;entryX=0;entryY=0.5;entryDx=0;entryDy=0;" parent="1" source="Qrx5u4FthudbhS2sXJX7-1" target="Qrx5u4FthudbhS2sXJX7-5" edge="1">
          <mxGeometry width="50" height="50" relative="1" as="geometry">
            <mxPoint x="450" y="360" as="sourcePoint" />
            <mxPoint x="500" y="310" as="targetPoint" />
          </mxGeometry>
        </mxCell>
        <mxCell id="Qrx5u4FthudbhS2sXJX7-15" value="" style="endArrow=none;html=1;rounded=0;exitX=0;exitY=0.5;exitDx=0;exitDy=0;" parent="1" source="Qrx5u4FthudbhS2sXJX7-6" target="Qrx5u4FthudbhS2sXJX7-1" edge="1">
          <mxGeometry width="50" height="50" relative="1" as="geometry">
            <mxPoint x="450" y="360" as="sourcePoint" />
            <mxPoint x="500" y="310" as="targetPoint" />
          </mxGeometry>
        </mxCell>
      </root>
    </mxGraphModel>
  </diagram>
</mxfile>
